<svg width="106" height="27" viewBox="0 0 106 27" fill="none" xmlns="http://www.w3.org/2000/svg">
<path fill-rule="evenodd" clip-rule="evenodd" d="M17.1348 4.39111L15.7031 19.1374C16.6576 19.042 17.612 18.9466 18.5188 18.8988L17.1348 4.39111Z" fill="#DDDDDD"/>
<path fill-rule="evenodd" clip-rule="evenodd" d="M17.1055 4.43896L18.4894 18.9467C19.6348 18.899 20.7801 18.8512 21.9255 18.8512V4.48669H17.1055V4.43896Z" fill="#F1F1F1"/>
<path fill-rule="evenodd" clip-rule="evenodd" d="M4.39844 4.39087V21.9051C7.40497 20.6166 11.2705 19.6144 15.661 19.1372L17.0927 4.39087H4.39844Z" fill="white"/>
<path fill-rule="evenodd" clip-rule="evenodd" d="M60.7305 4.48657V4.91608C61.0645 4.9638 62.1622 5.29786 62.1622 6.10915V18.8034H65.9323V4.48657H60.7305Z" fill="white"/>
<path fill-rule="evenodd" clip-rule="evenodd" d="M31.0892 4.48657V4.91608C31.5664 5.01152 32.5209 5.29786 32.1391 6.20459L26.5078 18.8034H29.4666L31.2324 14.8901H37.4363L38.9635 18.8034H42.8767L37.2932 4.48657H31.0892ZM34.573 7.49311L36.7682 13.1244H32.0437L34.573 7.49311Z" fill="white"/>
<path fill-rule="evenodd" clip-rule="evenodd" d="M88.8822 4.48657V4.91608C89.3594 5.01152 90.3138 5.29786 89.9321 6.20459L84.3008 18.8034H87.2596L89.0253 14.8901H95.2293L96.7564 18.8034H100.67L95.1338 4.48657H88.8822ZM92.3659 7.49311L94.5612 13.1244H89.8366L92.3659 7.49311Z" fill="white"/>
<path fill-rule="evenodd" clip-rule="evenodd" d="M81.9919 4.48657L77.6015 14.9856L73.4496 4.48657H68.1523V4.91608C68.7727 5.01152 69.4409 5.29786 69.7749 6.10915L74.7858 18.8034H78.8422L84.8076 4.48657H81.9919Z" fill="white"/>
<path fill-rule="evenodd" clip-rule="evenodd" d="M55.863 4.48657L51.4725 14.9856L47.3207 4.48657H42.0234V4.91608C42.6438 5.01152 43.312 5.29786 43.646 6.10915L48.6569 18.8034H52.7133L58.6787 4.48657H55.863Z" fill="white"/>
</svg>
