<svg width="106" height="27" viewBox="0 0 106 27" fill="none" xmlns="http://www.w3.org/2000/svg">
<g id="Frame 2147258548">
<g id="Frame 2147240637">
<g id="Frame 2147225498">
<g id="Frame 2147225498_2">
<g id="Frame 2147225495">
<g id="Aviva_id8nihZiFa_0 1">
<g id="Group">
<g id="Group_2">
<g id="Mask group">
<mask id="mask0_2517_425" style="mask-type:luminance" maskUnits="userSpaceOnUse" x="15" y="4" width="4" height="16">
<g id="Group_3">
<g id="Group_4">
<path id="a_1_" fill-rule="evenodd" clip-rule="evenodd" d="M17.1348 4.39111L15.7031 19.1374C16.6576 19.042 17.612 18.9466 18.5188 18.8988L17.1348 4.39111Z" fill="white"/>
</g>
</g>
</mask>
<g mask="url(#mask0_2517_425)">
<path id="Vector" fill-rule="evenodd" clip-rule="evenodd" d="M11.3047 23.5753H22.949V0.000244141H11.3047V23.5753Z" fill="#DDDDDD"/>
</g>
</g>
</g>
<g id="Group_5">
<g id="Mask group_2">
<mask id="mask1_2517_425" style="mask-type:luminance" maskUnits="userSpaceOnUse" x="17" y="4" width="5" height="15">
<g id="Group_6">
<g id="Group_7">
<path id="c_1_" fill-rule="evenodd" clip-rule="evenodd" d="M17.1055 4.43896L18.4894 18.9467C19.6348 18.899 20.7801 18.8512 21.9255 18.8512V4.48669H17.1055V4.43896Z" fill="white"/>
</g>
</g>
</mask>
<g mask="url(#mask1_2517_425)">
<path id="Vector_2" fill-rule="evenodd" clip-rule="evenodd" d="M12.7188 23.2894H26.3675V0.000732422H12.7188V23.2894Z" fill="#F1F1F1"/>
</g>
</g>
</g>
<g id="Mask group_3">
<mask id="mask2_2517_425" style="mask-type:luminance" maskUnits="userSpaceOnUse" x="4" y="4" width="14" height="18">
<g id="Group_8">
<g id="Group_9">
<path id="e_1_" fill-rule="evenodd" clip-rule="evenodd" d="M4.39844 4.39087V21.9051C7.40497 20.6166 11.2705 19.6144 15.661 19.1372L17.0927 4.39087H4.39844Z" fill="white"/>
</g>
</g>
</mask>
<g mask="url(#mask2_2517_425)">
<path id="Vector_3" fill-rule="evenodd" clip-rule="evenodd" d="M0.00390625 26.3432H21.5269V0.000244141H0.00390625V26.3432Z" fill="white"/>
</g>
</g>
<g id="Group_10">
<g id="Mask group_4">
<mask id="mask3_2517_425" style="mask-type:luminance" maskUnits="userSpaceOnUse" x="60" y="4" width="6" height="15">
<g id="Group_11">
<g id="Group_12">
<path id="g_1_" fill-rule="evenodd" clip-rule="evenodd" d="M60.7305 4.48657V4.91608C61.0645 4.9638 62.1622 5.29786 62.1622 6.10915V18.8034H65.9323V4.48657H60.7305Z" fill="white"/>
</g>
</g>
</mask>
<g mask="url(#mask3_2517_425)">
<path id="Vector_4" fill-rule="evenodd" clip-rule="evenodd" d="M56.3359 23.1938H70.3187V0.0959473H56.3359V23.1938Z" fill="white"/>
</g>
</g>
</g>
<g id="Group_13">
<g id="Mask group_5">
<mask id="mask4_2517_425" style="mask-type:luminance" maskUnits="userSpaceOnUse" x="26" y="4" width="17" height="15">
<g id="Group_14">
<g id="Group_15">
<path id="i_1_" fill-rule="evenodd" clip-rule="evenodd" d="M31.0892 4.48657V4.91608C31.5664 5.01152 32.5209 5.29786 32.1391 6.20459L26.5078 18.8034H29.4666L31.2324 14.8901H37.4363L38.9635 18.8034H42.8767L37.2932 4.48657H31.0892ZM34.573 7.49311L36.7682 13.1244H32.0437L34.573 7.49311Z" fill="white"/>
</g>
</g>
</mask>
<g mask="url(#mask4_2517_425)">
<path id="Vector_5" fill-rule="evenodd" clip-rule="evenodd" d="M22.1172 23.1938H47.3148V0.0959473H22.1172V23.1938Z" fill="white"/>
</g>
</g>
</g>
<g id="Group_16">
<g id="Mask group_6">
<mask id="mask5_2517_425" style="mask-type:luminance" maskUnits="userSpaceOnUse" x="84" y="4" width="17" height="15">
<g id="Group_17">
<g id="Group_18">
<path id="k_1_" fill-rule="evenodd" clip-rule="evenodd" d="M88.8822 4.48657V4.91608C89.3594 5.01152 90.3138 5.29786 89.9321 6.20459L84.3008 18.8034H87.2596L89.0253 14.8901H95.2293L96.7564 18.8034H100.67L95.1338 4.48657H88.8822ZM92.3659 7.49311L94.5612 13.1244H89.8366L92.3659 7.49311Z" fill="white"/>
</g>
</g>
</mask>
<g mask="url(#mask5_2517_425)">
<path id="Vector_6" fill-rule="evenodd" clip-rule="evenodd" d="M79.9141 23.1938H105.112V0.0959473H79.9141V23.1938Z" fill="white"/>
</g>
</g>
</g>
<g id="Group_19">
<g id="Mask group_7">
<mask id="mask6_2517_425" style="mask-type:luminance" maskUnits="userSpaceOnUse" x="68" y="4" width="17" height="15">
<g id="Group_20">
<g id="Group_21">
<path id="m_1_" fill-rule="evenodd" clip-rule="evenodd" d="M81.9919 4.48657L77.6015 14.9856L73.4496 4.48657H68.1523V4.91608C68.7727 5.01152 69.4409 5.29786 69.7749 6.10915L74.7858 18.8034H78.8422L84.8076 4.48657H81.9919Z" fill="white"/>
</g>
</g>
</mask>
<g mask="url(#mask6_2517_425)">
<path id="Vector_7" fill-rule="evenodd" clip-rule="evenodd" d="M63.7578 23.1938H89.194V0.0959473H63.7578V23.1938Z" fill="white"/>
</g>
</g>
</g>
<g id="Group_22">
<g id="Mask group_8">
<mask id="mask7_2517_425" style="mask-type:luminance" maskUnits="userSpaceOnUse" x="42" y="4" width="17" height="15">
<g id="Group_23">
<g id="Group_24">
<path id="o_1_" fill-rule="evenodd" clip-rule="evenodd" d="M55.863 4.48657L51.4725 14.9856L47.3207 4.48657H42.0234V4.91608C42.6438 5.01152 43.312 5.29786 43.646 6.10915L48.6569 18.8034H52.7133L58.6787 4.48657H55.863Z" fill="white"/>
</g>
</g>
</mask>
<g mask="url(#mask7_2517_425)">
<path id="Vector_8" fill-rule="evenodd" clip-rule="evenodd" d="M37.6289 23.1938H63.0651V0.0959473H37.6289V23.1938Z" fill="white"/>
</g>
</g>
</g>
</g>
</g>
</g>
</g>
</g>
</g>
</g>
</svg>
