<svg preserveAspectRatio="none" overflow="visible" style="display: block;" width="176.162" height="24.2982" viewBox="0 0 176.162 24.2982" fill="none" xmlns="http://www.w3.org/2000/svg">
<g id="Vector">
<path d="M36.971 19.6827C35.5052 19.6827 34.2392 19.372 33.1732 18.7507C32.1071 18.1146 31.2854 17.2122 30.7079 16.0435C30.1305 14.8748 29.8417 13.4916 29.8417 11.8939C29.8417 10.2814 30.1305 8.89085 30.7079 7.72217C31.2854 6.55349 32.1071 5.65109 33.1732 5.01497C34.2392 4.37885 35.5052 4.0608 36.971 4.0608C38.4369 4.0608 39.7028 4.37885 40.7689 5.01497C41.8349 5.65109 42.6567 6.55349 43.2342 7.72217C43.8116 8.89085 44.1003 10.2814 44.1003 11.8939C44.1003 13.4916 43.8116 14.8748 43.2342 16.0435C42.6567 17.2122 41.8349 18.1146 40.7689 18.7507C39.7028 19.372 38.4369 19.6827 36.971 19.6827ZM36.971 17.9296C38.0223 17.9296 38.9255 17.6856 39.6806 17.1974C40.4357 16.7092 41.0132 16.0139 41.413 15.1115C41.8127 14.2091 42.0126 13.1366 42.0126 11.8939C42.0126 10.6365 41.8127 9.55656 41.413 8.65416C41.0132 7.73697 40.4357 7.03428 39.6806 6.54609C38.9255 6.05791 38.0223 5.81382 36.971 5.81382C35.9198 5.81382 35.0166 6.05791 34.2615 6.54609C33.5063 7.03428 32.9289 7.73697 32.5291 8.65416C32.1293 9.55656 31.9294 10.6365 31.9294 11.8939C31.9294 13.1366 32.1293 14.2091 32.5291 15.1115C32.9289 16.0139 33.5063 16.7092 34.2615 17.1974C35.0166 17.6856 35.9198 17.9296 36.971 17.9296Z" fill="white"/>
<path d="M51.2307 7.34494C52.2819 7.34494 53.1777 7.58903 53.918 8.07721C54.6732 8.5654 55.2506 9.26809 55.6504 10.1853C56.0502 11.1025 56.2501 12.2046 56.2501 13.4916C56.2501 15.4887 55.7985 17.0198 54.8953 18.085C53.9921 19.1501 52.7705 19.6827 51.2307 19.6827C49.8685 19.6827 48.7802 19.1575 47.9659 18.1072C47.1663 17.042 46.7665 15.5035 46.7665 13.4916C46.7665 12.249 46.9442 11.169 47.2996 10.2519C47.6697 9.33466 48.1879 8.62457 48.8542 8.12159C49.5353 7.60382 50.3275 7.34494 51.2307 7.34494ZM51.0974 9.03139C50.061 9.03139 49.2688 9.41602 48.721 10.1853C48.1879 10.9397 47.9214 12.0419 47.9214 13.4916C47.9214 14.9266 48.1954 16.0361 48.7432 16.8201C49.3058 17.6042 50.0906 17.9962 51.0974 17.9962C52.1191 17.9962 52.8964 17.6116 53.4294 16.8423C53.9773 16.0583 54.2512 14.9414 54.2512 13.4916C54.2512 12.0714 53.9773 10.9767 53.4294 10.2075C52.8816 9.42342 52.1043 9.03139 51.0974 9.03139ZM47.9214 24.2982H45.967V7.63341H47.9214V24.2982Z" fill="white"/>
<path d="M58.1412 16.0213V4.92621H60.0956V16.0213C60.0956 16.7314 60.2363 17.2565 60.5176 17.5968C60.8137 17.937 61.3912 18.1072 62.25 18.1072H62.6497V19.5051C62.5461 19.5643 62.3758 19.6087 62.1389 19.6383C61.9168 19.6679 61.6651 19.6827 61.3838 19.6827C60.2881 19.6827 59.4738 19.3868 58.9407 18.7951C58.4077 18.1885 58.1412 17.2639 58.1412 16.0213ZM56.4977 9.18672V7.63341H62.6942V9.18672H56.4977Z" fill="white"/>
<path d="M63.6665 19.4164V7.63341H65.621V19.4164H63.6665ZM63.6665 6.05791V3.43947H65.621V6.05791H63.6665Z" fill="white"/>
<path d="M67.8317 19.4164V7.63341H69.7861V19.4164H67.8317ZM69.7861 12.4487H68.8533C68.9274 11.3244 69.1495 10.385 69.5196 9.63053C69.8898 8.87606 70.3858 8.30651 71.0077 7.92188C71.6444 7.53725 72.3625 7.34494 73.162 7.34494C73.9468 7.34494 74.6131 7.50767 75.1609 7.83312C75.7235 8.14378 76.1529 8.60978 76.4491 9.2311C76.7452 9.85243 76.8932 10.6217 76.8932 11.5389V19.4164H74.9388V11.9383C74.9388 11.3466 74.8574 10.8362 74.6945 10.4072C74.5316 9.96338 74.2799 9.62313 73.9394 9.38643C73.5988 9.13495 73.162 9.0092 72.629 9.0092C72.1848 9.0092 71.785 9.11275 71.4297 9.31986C71.0891 9.51218 70.793 9.77106 70.5413 10.0965C70.2896 10.422 70.0971 10.7918 69.9638 11.206C69.8454 11.6054 69.7861 12.0197 69.7861 12.4487ZM76.8932 12.4487H75.7383C75.8124 11.3244 76.0419 10.385 76.4268 9.63053C76.8118 8.87606 77.3226 8.30651 77.9593 7.92188C78.596 7.53725 79.3289 7.34494 80.1581 7.34494C80.9576 7.34494 81.6461 7.50767 82.2236 7.83312C82.801 8.14378 83.2378 8.60978 83.5339 9.2311C83.8449 9.85243 84.0003 10.6217 84.0003 11.5389V19.4164H82.0459V11.9383C82.0459 11.3466 81.9645 10.8362 81.8016 10.4072C81.6387 9.96338 81.387 9.62313 81.0464 9.38643C80.7059 9.13495 80.2691 9.0092 79.7361 9.0092C79.2919 9.0092 78.8921 9.11275 78.5368 9.31986C78.1962 9.51218 77.9001 9.77106 77.6484 10.0965C77.3967 10.422 77.2042 10.7918 77.0709 11.206C76.9525 11.6054 76.8932 12.0197 76.8932 12.4487Z" fill="white"/>
<path d="M88.0239 11.4723H86.0695C86.2027 10.5995 86.4767 9.85982 86.8912 9.25329C87.3058 8.63197 87.8611 8.15858 88.557 7.83312C89.2529 7.50767 90.082 7.34494 91.0444 7.34494C92.0957 7.34494 92.9693 7.53725 93.6652 7.92188C94.3611 8.30651 94.8793 8.84647 95.2199 9.54176C95.5604 10.2223 95.7307 11.0211 95.7307 11.9383V16.576C95.7307 17.2565 95.7603 17.8187 95.8195 18.2625C95.8936 18.7063 96.0046 19.0909 96.1527 19.4164H94.0872C93.9391 19.1205 93.8503 18.7507 93.8206 18.3069C93.791 17.8631 93.7762 17.4267 93.7762 16.9977V11.9827C93.7762 11.0359 93.5393 10.311 93.0655 9.80805C92.6065 9.29028 91.8736 9.03139 90.8668 9.03139C90.0228 9.03139 89.3639 9.25329 88.8901 9.6971C88.4311 10.1261 88.1424 10.7178 88.0239 11.4723ZM94.065 12.249V13.7135C92.7472 13.7135 91.6663 13.7801 90.8223 13.9132C89.9932 14.0316 89.3491 14.2091 88.8901 14.4458C88.4311 14.6677 88.1128 14.934 87.9351 15.2446C87.7574 15.5553 87.6686 15.8955 87.6686 16.2654C87.6686 16.8127 87.8759 17.2418 88.2904 17.5524C88.7198 17.8483 89.2751 17.9962 89.9562 17.9962C90.6817 17.9962 91.3332 17.8261 91.9106 17.4858C92.4881 17.1456 92.9397 16.6944 93.2654 16.1322C93.606 15.5553 93.7762 14.934 93.7762 14.2683H94.8201C94.7609 15.2298 94.5684 16.0583 94.2426 16.7536C93.9317 17.4341 93.5245 17.9888 93.0211 18.4178C92.5325 18.8468 92.0069 19.1649 91.4442 19.372C90.8816 19.5791 90.3189 19.6827 89.7563 19.6827C88.9419 19.6827 88.2238 19.5569 87.6019 19.3054C86.9949 19.0539 86.5211 18.6767 86.1805 18.1737C85.84 17.6708 85.6697 17.0494 85.6697 16.3098C85.6697 15.4961 85.8844 14.8082 86.3138 14.2461C86.758 13.6691 87.4169 13.2327 88.2904 12.9369C89.1196 12.6558 89.9858 12.4709 90.889 12.3821C91.7922 12.2933 92.8508 12.249 94.065 12.249Z" fill="white"/>
<path d="M98.0464 19.4164V3.43947H100.001V19.4164H98.0464Z" fill="white"/>
<path d="M105.947 19.4164V4.32708H107.99V19.4164H105.947Z" fill="white"/>
<path d="M110.39 19.4164V7.63341H112.345V19.4164H110.39ZM112.345 12.4487H111.412C111.486 11.3244 111.715 10.385 112.1 9.63053C112.5 8.87606 113.033 8.30651 113.699 7.92188C114.366 7.53725 115.128 7.34494 115.987 7.34494C116.831 7.34494 117.549 7.50767 118.141 7.83312C118.734 8.14378 119.185 8.60978 119.496 9.2311C119.822 9.85243 119.985 10.6217 119.985 11.5389V19.4164H118.03V11.9383C118.03 11.3466 117.934 10.8362 117.741 10.4072C117.564 9.96338 117.282 9.62313 116.898 9.38643C116.527 9.13495 116.046 9.0092 115.454 9.0092C114.965 9.0092 114.528 9.11275 114.144 9.31986C113.759 9.51218 113.433 9.77106 113.166 10.0965C112.9 10.422 112.692 10.7918 112.544 11.206C112.411 11.6054 112.345 12.0197 112.345 12.4487Z" fill="white"/>
<path d="M122.478 16.0213V4.92621H124.433V16.0213C124.433 16.7314 124.573 17.2565 124.854 17.5968C125.151 17.937 125.728 18.1072 126.587 18.1072H126.987V19.5051C126.883 19.5643 126.713 19.6087 126.476 19.6383C126.254 19.6679 126.002 19.6827 125.721 19.6827C124.625 19.6827 123.811 19.3868 123.278 18.7951C122.745 18.1885 122.478 17.2639 122.478 16.0213ZM120.835 9.18672V7.63341H127.031V9.18672H120.835Z" fill="white"/>
<path d="M137.243 12.4043L136.132 13.4472C136.132 12.0419 135.836 10.9545 135.244 10.1853C134.666 9.41602 133.845 9.03139 132.778 9.03139C131.683 9.03139 130.846 9.42342 130.269 10.2075C129.691 10.9767 129.403 12.0862 129.403 13.536C129.403 14.9562 129.706 16.0583 130.313 16.8423C130.92 17.6116 131.779 17.9962 132.89 17.9962C133.719 17.9962 134.415 17.7965 134.977 17.3971C135.555 16.9977 135.947 16.3911 136.154 15.5775H138.198C137.872 16.9533 137.235 17.9814 136.288 18.6619C135.355 19.3424 134.222 19.6827 132.89 19.6827C131.749 19.6827 130.765 19.4386 129.936 18.9504C129.121 18.4622 128.492 17.7595 128.048 16.8423C127.618 15.9103 127.404 14.8082 127.404 13.536C127.404 12.2046 127.618 11.0803 128.048 10.1631C128.492 9.2459 129.114 8.5506 129.913 8.07721C130.728 7.58903 131.683 7.34494 132.778 7.34494C133.889 7.34494 134.837 7.58903 135.621 8.07721C136.421 8.5654 137.035 9.26069 137.465 10.1631C137.894 11.0507 138.109 12.1232 138.109 13.3807V13.8688H128.225V12.4043H137.243Z" fill="white"/>
<path d="M139.825 19.4164V3.43947H141.779V19.4164H139.825Z" fill="white"/>
<path d="M143.99 19.4164V3.43947H145.944V19.4164H143.99Z" fill="white"/>
<path d="M157.394 12.4043L156.284 13.4472C156.284 12.0419 155.988 10.9545 155.396 10.1853C154.818 9.41602 153.996 9.03139 152.93 9.03139C151.835 9.03139 150.998 9.42342 150.421 10.2075C149.843 10.9767 149.554 12.0862 149.554 13.536C149.554 14.9562 149.858 16.0583 150.465 16.8423C151.072 17.6116 151.931 17.9962 153.041 17.9962C153.87 17.9962 154.566 17.7965 155.129 17.3971C155.706 16.9977 156.099 16.3911 156.306 15.5775H158.349C158.024 16.9533 157.387 17.9814 156.439 18.6619C155.507 19.3424 154.374 19.6827 153.041 19.6827C151.901 19.6827 150.917 19.4386 150.087 18.9504C149.273 18.4622 148.644 17.7595 148.2 16.8423C147.77 15.9103 147.556 14.8082 147.556 13.536C147.556 12.2046 147.77 11.0803 148.2 10.1631C148.644 9.2459 149.266 8.5506 150.065 8.07721C150.88 7.58903 151.835 7.34494 152.93 7.34494C154.041 7.34494 154.988 7.58903 155.773 8.07721C156.573 8.5654 157.187 9.26069 157.617 10.1631C158.046 11.0507 158.261 12.1232 158.261 13.3807V13.8688H148.377V12.4043H157.394Z" fill="white"/>
<path d="M169.727 11.6942H167.772C167.609 10.7918 167.254 10.1261 166.706 9.6971C166.158 9.25329 165.492 9.03139 164.707 9.03139C163.626 9.03139 162.797 9.42342 162.22 10.2075C161.657 10.9767 161.376 12.0862 161.376 13.536C161.376 14.971 161.672 16.0805 162.264 16.8645C162.856 17.6338 163.693 18.0184 164.774 18.0184C165.559 18.0184 166.218 17.8113 166.751 17.3971C167.298 16.9681 167.669 16.332 167.861 15.4887H169.816C169.549 16.9533 168.957 18.0184 168.039 18.6841C167.121 19.3498 166.018 19.6827 164.73 19.6827C163.619 19.6827 162.664 19.4386 161.864 18.9504C161.065 18.4474 160.45 17.7373 160.021 16.8201C159.592 15.9029 159.377 14.8082 159.377 13.536C159.377 12.2046 159.592 11.0803 160.021 10.1631C160.45 9.2459 161.065 8.5506 161.864 8.07721C162.664 7.58903 163.612 7.34494 164.707 7.34494C165.581 7.34494 166.373 7.50767 167.084 7.83312C167.794 8.15858 168.379 8.64676 168.838 9.29767C169.312 9.93379 169.608 10.7326 169.727 11.6942Z" fill="white"/>
<path d="M171.609 16.0213V4.92621H173.564V16.0213C173.564 16.7314 173.704 17.2565 173.986 17.5968C174.282 17.937 174.859 18.1072 175.718 18.1072H176.118V19.5051C176.014 19.5643 175.844 19.6087 175.607 19.6383C175.385 19.6679 175.133 19.6827 174.852 19.6827C173.756 19.6827 172.942 19.3868 172.409 18.7951C171.876 18.1885 171.609 17.2639 171.609 16.0213ZM169.966 9.18672V7.63341H176.162V9.18672H169.966Z" fill="white"/>
<path d="M22.213 11.0934C22.213 17.2221 17.2406 22.1902 11.1065 22.1902C4.97241 22.1902 0 17.2221 0 11.0934C0 4.96466 4.82923 0.141026 10.8405 0C5.27299 0.141026 0.802897 4.69445 0.802897 10.2909C0.802897 15.8873 5.41617 20.5854 11.1065 20.5854C16.7969 20.5854 21.4101 15.9762 21.4101 10.2909C21.4101 4.6055 16.9401 0.141026 11.3726 0C17.3838 0.141026 22.213 5.05361 22.213 11.0934Z" fill="white"/>
<path d="M20.244 9.12713C20.244 14.1696 16.153 18.257 11.1062 18.257C6.05927 18.257 1.96829 14.1696 1.96829 9.12713C1.96829 4.08469 5.94148 0.116 10.8872 0C6.30671 0.116 2.62902 3.86249 2.62902 8.46664C2.62902 13.0708 6.4245 16.9363 11.1062 16.9363C15.7878 16.9363 19.5833 13.1442 19.5833 8.46664C19.5833 3.78911 15.9056 0.116 11.3252 0C16.2708 0.116 20.244 4.15774 20.244 9.12713Z" fill="white"/>
<path d="M18.419 7.30292C18.419 11.3376 15.1455 14.6082 11.1073 14.6082C7.06913 14.6082 3.7956 11.3376 3.7956 7.30292C3.7956 3.26829 6.97503 0.0930029 10.9323 0C7.26715 0.0930029 4.32432 3.0904 4.32432 6.77467C4.32432 10.4589 7.36124 13.5517 11.1073 13.5517C14.8534 13.5517 17.8903 10.5174 17.8903 6.77467C17.8903 3.03189 14.9475 0.0930029 11.2823 0C15.2396 0.0930029 18.419 3.3268 18.419 7.30292Z" fill="white"/>
</g>
</svg>
