<svg width="171" height="25" viewBox="0 0 171 25" fill="none" xmlns="http://www.w3.org/2000/svg">
<g id="Frame 2147240610">
<g id="Frame 2147225496">
<g id="Frame 2147225498">
<g id="Frame 2147225497">
<g id="Frame 2147225283">
<g id="Inputs/Logo" clip-path="url(#clip0_2517_425)">
<g id="Clip path group">
<mask id="mask0_2517_425" style="mask-type:luminance" maskUnits="userSpaceOnUse" x="0" y="0" width="171" height="25">
<g id="clip0_254_8649">
<path id="Vector" d="M170.699 0H0V24.7045H170.699V0Z" fill="white"/>
</g>
</mask>
<g mask="url(#mask0_2517_425)">
<g id="Group">
<path id="Vector_2" d="M38.5194 11.6214V8.46935H41.1818C42.3905 8.46935 42.9414 9.11199 42.9414 10.0607C42.9414 11.0093 42.3905 11.6214 41.1818 11.6214H38.5194ZM38.5194 13.3351H41.1665C43.6911 13.3351 44.8082 11.9121 44.8082 10.0607C44.8082 8.20923 43.7524 6.75562 41.1665 6.75562H36.668V17.6194H38.5194V13.3351Z" fill="white"/>
<path id="Vector_3" d="M49.2821 17.8027C51.822 17.8027 53.4133 15.89 53.4133 13.6561C53.4133 11.4221 51.822 9.49414 49.2821 9.49414C46.7573 9.49414 45.166 11.4221 45.166 13.6561C45.166 15.89 46.7573 17.8027 49.2821 17.8027ZM46.9869 13.6561C46.9869 12.1106 47.9662 11.1008 49.2821 11.1008C50.6133 11.1008 51.5926 12.1106 51.5926 13.6561C51.5926 15.1861 50.6133 16.196 49.2821 16.196C47.9662 16.196 46.9869 15.1861 46.9869 13.6561Z" fill="white"/>
<path id="Vector_4" d="M61.8987 17.6197H63.6277L66.3972 9.67847H64.5458L62.7555 15.3858L60.9499 9.67847H59.2669L57.4461 15.3705L55.6711 9.67847H53.7891L56.5586 17.6197H58.2876L60.0931 12.1726H60.1084L61.8987 17.6197Z" fill="white"/>
<path id="Vector_5" d="M74.4944 14.1763C74.4944 14.1763 74.5097 13.9009 74.5097 13.6101C74.5097 11.2844 72.9642 9.49414 70.6079 9.49414C68.2515 9.49414 66.6602 11.3303 66.6602 13.6408C66.6602 16.0124 68.2208 17.8027 70.6232 17.8027C72.4746 17.8027 73.8823 16.6857 74.3567 15.1097H72.5204C72.2297 15.8135 71.5106 16.242 70.669 16.242C69.3991 16.242 68.5881 15.4309 68.4504 14.1763H74.4944ZM70.6079 10.9783C71.7861 10.9783 72.5511 11.7281 72.7041 12.8297H68.4809C68.6646 11.7434 69.4297 10.9783 70.6079 10.9783Z" fill="white"/>
<path id="Vector_6" d="M80.3077 9.61735C80.3077 9.61735 80.1241 9.60205 80.0476 9.60205C78.6704 9.60205 77.9972 10.2753 77.7065 10.7802V9.67856H76.0234V17.6198H77.8442V13.4886C77.8442 11.9584 78.6093 11.2852 79.8946 11.2852C80.0936 11.2852 80.3077 11.3158 80.3077 11.3158V9.61735Z" fill="white"/>
<path id="Vector_7" d="M86.1261 6.75562H84.4277V17.6194H86.2485V9.67814L89.523 13.9319H89.5842L92.874 9.67814V17.6194H94.6948V6.75562H92.9964L89.5537 11.2542L86.1261 6.75562Z" fill="white"/>
<path id="Vector_8" d="M97.7539 20.8024H99.5594L104.089 9.67847H102.191L100.003 15.4316L97.8456 9.67847H95.9023L99.1003 17.5586L97.7539 20.8024Z" fill="white"/>
<path id="Vector_9" d="M107.593 17.6194L108.374 15.5232H113.239L114.02 17.6194H116.04L111.816 6.75562H109.843L105.635 17.6194H107.593ZM110.822 9.05078L112.627 13.84H108.986L110.791 9.05078H110.822Z" fill="white"/>
<path id="Vector_10" d="M118.818 9.67775H117.135V17.619H118.956V13.0134C118.956 11.774 119.675 11.0549 120.822 11.0549C121.909 11.0549 122.398 11.774 122.398 12.8604V17.619H124.219V12.6309C124.219 10.7794 123.194 9.49414 121.266 9.49414C119.966 9.49414 119.155 10.1062 118.818 10.7335V9.67775Z" fill="white"/>
<path id="Vector_11" d="M131.879 9.69362V10.8259C131.374 9.99964 130.44 9.51001 129.201 9.51001C126.86 9.51001 125.529 11.3921 125.529 13.6567C125.529 15.9212 126.86 17.8032 129.201 17.8032C130.44 17.8032 131.374 17.3135 131.879 16.4873V17.6196H133.561V9.69362H131.879ZM127.35 13.6567C127.35 12.2336 128.206 11.1166 129.583 11.1166C130.976 11.1166 131.817 12.2336 131.817 13.6567C131.817 15.0796 130.976 16.1966 129.583 16.1966C128.206 16.1966 127.35 15.0796 127.35 13.6567Z" fill="white"/>
<path id="Vector_12" d="M137.127 17.6194V6.14355H135.307V17.6194H137.127Z" fill="white"/>
<path id="Vector_13" d="M140 20.8024H141.805L146.335 9.67847H144.437L142.25 15.4316L140.092 9.67847H138.148L141.347 17.5586L140 20.8024Z" fill="white"/>
<path id="Vector_14" d="M150.076 11.1321H151.407V9.67845H150.076V7.61279H148.256V9.67845H147.047V11.1321H148.256V17.6197H150.076V11.1321Z" fill="white"/>
<path id="Vector_15" d="M153.406 8.34684C154.064 8.34684 154.539 7.88781 154.539 7.22985C154.539 6.55661 154.064 6.08228 153.406 6.08228C152.732 6.08228 152.258 6.55661 152.258 7.22985C152.258 7.88781 152.732 8.34684 153.406 8.34684ZM152.488 17.6193H154.308V9.67804H152.488V17.6193Z" fill="white"/>
<path id="Vector_16" d="M155.531 13.6561C155.531 15.9512 157.154 17.8027 159.494 17.8027C161.85 17.8027 163.044 16.1654 163.258 14.7424H161.392C161.178 15.5993 160.458 16.196 159.479 16.196C158.178 16.196 157.352 15.1402 157.352 13.6561C157.352 12.1565 158.178 11.1008 159.479 11.1008C160.458 11.1008 161.178 11.6975 161.392 12.5543H163.258C163.044 11.1314 161.85 9.49414 159.494 9.49414C157.154 9.49414 155.531 11.3456 155.531 13.6561Z" fill="white"/>
<path id="Vector_17" d="M167.377 17.8027C169.596 17.8027 170.698 16.6704 170.698 15.3239C170.698 12.1106 166.138 13.4724 166.138 11.927C166.138 11.3456 166.596 10.9783 167.5 10.9783C168.433 10.9783 168.861 11.5598 168.922 12.1259H170.667C170.591 11.0549 169.826 9.49414 167.545 9.49414C165.587 9.49414 164.394 10.657 164.394 11.9882C164.394 15.2168 168.953 13.7172 168.953 15.4004C168.953 15.9512 168.433 16.3031 167.484 16.3031C166.367 16.3031 165.817 15.7676 165.771 15.0791H164.012C164.103 16.5327 165.051 17.8027 167.377 17.8027Z" fill="white"/>
<path id="Vector_18" d="M13.7388 10.9099C13.7388 10.4367 13.3532 10.053 12.8776 10.053H7.81445L16.8189 0V5.39832C16.8189 5.87157 17.2045 6.25522 17.6801 6.25522H22.7433L13.7388 16.3083V10.9099Z" fill="white"/>
<path id="Vector_19" fill-rule="evenodd" clip-rule="evenodd" d="M29.8576 14.7641C28.6345 17.7065 26.5634 20.2216 23.9062 21.991C21.2488 23.7604 18.1247 24.7049 14.9287 24.7049C11.7329 24.7049 8.60873 23.7604 5.95143 21.991C3.29414 20.2216 1.22302 17.7065 0 14.7641L3.69025 13.2407C4.61096 15.4558 6.17012 17.3492 8.17055 18.6813C10.171 20.0133 12.5229 20.7243 14.9287 20.7243C17.3347 20.7243 19.6866 20.0133 21.6869 18.6813C23.6874 17.3492 25.2466 15.4558 26.1673 13.2407L29.8576 14.7641Z" fill="white"/>
</g>
</g>
</g>
</g>
</g>
</g>
</g>
</g>
</g>
<defs>
<clipPath id="clip0_2517_425">
<rect width="170.699" height="24.7768" fill="white"/>
</clipPath>
</defs>
</svg>
